<svg xmlns="http://www.w3.org/2000/svg" viewBox="0 0 3207.79 512"><title>LC - Wordmark-black</title><g id="Layer_2" data-name="Layer 2"><g id="Layer_1-2" data-name="Layer 1"><path d="M769.93,67.33h99.59V355.58h148V437.5H769.93Z"/><path d="M1046.66,437.5,1177.74,67.33h101.88L1410.7,437.5h-98.31l-24.57-71.68H1171.08L1146,437.5Zm145.41-156.67h73.22l-36.35-118.27Z"/><path d="M1791.88,437.5h-107l-82.43-156.16-46.08,59.4V437.5H1452.93V67.33h103.43v149.5l107-149.5h111.87L1673.61,208.64Z"/><path d="M1836.16,437.5V67.33h273.41l-.51,82.43H1936.51V211.2H2080.9v80.38H1935.74v63h174.34V437.5Z"/><path d="M2462.33,194.31l.51,5.12H2431.1l-1-5.12c-10.75-53.76-46.08-91.65-109.05-91.65-72.71,0-127.49,62-127.49,158.21,0,98.3,52.22,158.2,123.9,158.2,65.54,0,100.35-39.42,111.11-93.69l1-5.12h31.74l-.51,5.12c-9.21,65-55.29,119.29-145.4,119.29-96.77,0-157.19-74.75-157.19-182.27,0-108.54,67.59-185.34,164.35-185.34C2407.54,77.06,2453.11,127.24,2462.33,194.31Z"/><path d="M2537.59,437.5V84.23h31.75V437.5Z"/><path d="M2785.91,110.34V437.5h-31.75V110.34H2624.63V84.23h290.81v26.11Z"/><path d="M3082.35,437.5h-31.74V296.71L2925.68,84.23H2962l106,181.24L3171.44,84.23h36.35l-125.44,212Z"/><polygon points="512 250.57 512 325.27 147.35 325.27 147.35 74.75 222.05 74.75 222.05 250.57 512 250.57"/><polygon points="512 0 512 213.2 437.3 213.2 437.3 74.75 222.05 74.75 222.05 0 512 0"/><polygon points="437.3 362.6 512 362.6 512 512 0 512 0 0 147.35 0 147.35 74.75 74.75 74.75 74.75 437.3 437.3 437.3 437.3 362.6"/></g></g></svg>